<?xml version="1.0" encoding="UTF-8" standalone="no"?>
<svg
   xmlns:dc="http://purl.org/dc/elements/1.1/"
   xmlns:cc="http://creativecommons.org/ns#"
   xmlns:rdf="http://www.w3.org/1999/02/22-rdf-syntax-ns#"
   xmlns:svg="http://www.w3.org/2000/svg"
   xmlns="http://www.w3.org/2000/svg"
   xmlns:sodipodi="http://sodipodi.sourceforge.net/DTD/sodipodi-0.dtd"
   xmlns:inkscape="http://www.inkscape.org/namespaces/inkscape"
   width="255.10962"
   height="289.3222"
   viewBox="0 0 255.10962 289.3222"
   version="1.1"
   preserveAspectRatio="xMidYMid"
   id="svg24"
   sodipodi:docname="html5.svg"
   inkscape:version="0.92.3 (2405546, 2018-03-11)">
  <metadata
     id="metadata30">
    <rdf:RDF>
      <cc:Work
         rdf:about="">
        <dc:format>image/svg+xml</dc:format>
        <dc:type
           rdf:resource="http://purl.org/dc/dcmitype/StillImage" />
        <dc:title></dc:title>
      </cc:Work>
    </rdf:RDF>
  </metadata>
  <defs
     id="defs28" />
  <sodipodi:namedview
     pagecolor="#ffffff"
     bordercolor="#666666"
     borderopacity="1"
     objecttolerance="10"
     gridtolerance="10"
     guidetolerance="10"
     inkscape:pageopacity="0"
     inkscape:pageshadow="2"
     inkscape:window-width="1920"
     inkscape:window-height="987"
     id="namedview26"
     showgrid="false"
     fit-margin-top="0"
     fit-margin-left="0"
     fit-margin-right="0"
     fit-margin-bottom="0"
     inkscape:zoom="1.3074792"
     inkscape:cx="134.51872"
     inkscape:cy="245.20507"
     inkscape:window-x="0"
     inkscape:window-y="0"
     inkscape:window-maximized="1"
     inkscape:current-layer="svg24" />
  <path
     style="fill:#e44d26"
     inkscape:connector-curvature="0"
     id="path2"
     d="M 255.10962,0 231.86848,260.35974 127.39868,289.3222 23.216527,260.40053 0,0 Z" />
  <path
     style="fill:#f16529"
     inkscape:connector-curvature="0"
     id="path4"
     d="m 127.55481,267.18453 84.4167,-23.4036 19.8611,-222.489325 h -104.2778 z" />
  <path
     style="fill:#ebebeb"
     inkscape:connector-curvature="0"
     id="path6"
     d="m 82.375033,85.166416 h 45.179777 v -31.9374 H 47.471824 l 0.764483,8.56826 7.849495,88.009844 h 71.469008 v -31.9367 H 85.293714 Z" />
  <path
     style="fill:#ebebeb"
     inkscape:connector-curvature="0"
     id="path8"
     d="m 89.572571,165.77618 h -32.05978 l 4.474374,50.14576 65.420655,18.16123 0.14699,-0.0408 v -33.22796 l -0.13996,0.0373 -35.568521,-9.60422 -2.273758,-25.4713 z" />
  <path
     style="fill:#ffffff"
     inkscape:connector-curvature="0"
     id="path18"
     d="m 127.44439,149.80712 h 39.32695 l -3.70708,41.41996 -35.61987,9.61407 v 33.22655 l 65.47271,-18.14576 0.48035,-5.39569 7.50488,-84.07983 0.77925,-8.576 h -74.23719 z" />
  <path
     style="fill:#ffffff"
     inkscape:connector-curvature="0"
     id="path20"
     d="m 127.44439,85.088356 v 0.0781 h 77.14321 l 0.6407,-7.17855 1.45512,-16.19059 0.76379,-8.56826 h -80.00282 v 31.85934 z" />
</svg>
