<?xml version="1.0" standalone="no"?>
<!DOCTYPE svg PUBLIC "-//W3C//DTD SVG 20010904//EN"
 "http://www.w3.org/TR/2001/REC-SVG-20010904/DTD/svg10.dtd">
<svg version="1.0" xmlns="http://www.w3.org/2000/svg"
 width="700.000000pt" height="700.000000pt" viewBox="0 0 700.000000 700.000000"
 preserveAspectRatio="xMidYMid meet">
<metadata>
Created by potrace 1.11, written by Peter Selinger 2001-2013
</metadata>
<g transform="translate(0.000000,700.000000) scale(0.100000,-0.100000)"
fill="#000000" stroke="none">
<path d="M3845 6988 c-16 -6 -43 -22 -59 -37 -55 -51 -58 -68 -64 -421 -5
-351 -3 -374 45 -431 50 -59 51 -59 413 -59 l330 0 0 -85 c0 -56 -5 -96 -15
-114 -20 -39 -69 -78 -113 -91 -22 -6 -187 -10 -422 -10 -353 0 -388 2 -425
19 -46 21 -79 54 -94 94 -7 18 -11 153 -11 373 0 325 1 347 20 384 11 22 37
51 58 66 l37 26 -160 -6 c-409 -15 -789 -96 -1157 -247 -133 -54 -369 -173
-458 -230 l-55 -36 -17 -84 c-34 -164 -133 -300 -268 -366 -91 -44 -141 -55
-248 -55 l-92 1 -91 -102 c-1045 -1173 -1133 -2911 -213 -4189 80 -111 253
-318 265 -318 5 0 9 222 9 493 l0 494 1163 6 c639 4 1816 7 2615 7 l1452 0 1
-282 c0 -322 -9 -307 87 -150 78 127 203 387 261 544 279 748 279 1584 1 2336
-97 260 -274 591 -433 805 l-58 79 -24 -26 -24 -26 -191 0 c-191 0 -191 0
-216 25 l-25 25 3 195 c2 130 7 198 15 206 6 6 25 14 42 18 l30 6 -97 82
c-209 177 -427 320 -676 444 -88 43 -163 79 -168 79 -4 0 -8 -55 -8 -122 0
-98 -4 -131 -19 -163 -35 -76 -92 -105 -206 -105 l-75 0 0 266 c0 297 -3 312
-68 362 -34 26 -40 27 -188 30 l-152 3 -32 64 c-28 55 -32 71 -26 107 4 24 18
60 31 80 14 21 25 40 25 43 0 10 -225 3 -255 -7z m-913 -467 l33 -29 3 -331
c2 -286 1 -336 -13 -365 -35 -73 -134 -76 -170 -6 -21 40 -22 671 -1 709 31
56 99 66 148 22z m-339 -191 l27 -30 0 -241 c0 -254 -5 -285 -49 -309 -39 -20
-91 -12 -122 19 l-29 29 0 246 c0 161 4 254 11 270 15 33 66 58 104 51 17 -3
42 -19 58 -35z m-389 -154 c61 -25 66 -42 66 -219 l0 -159 -29 -29 c-23 -23
-38 -29 -71 -29 -33 0 -48 6 -71 29 l-29 29 0 159 c0 176 5 193 64 219 38 16
31 16 70 0z m3218 -613 c16 -15 18 -35 18 -214 0 -166 2 -200 16 -213 13 -13
46 -16 207 -16 235 0 243 -3 234 -86 -8 -78 -60 -179 -127 -245 -252 -253
-678 -147 -782 195 -17 55 -20 86 -16 161 4 81 10 104 41 170 39 82 124 178
187 210 102 53 189 68 222 38z m-2353 -808 c231 -55 407 -263 428 -505 30
-351 -295 -656 -643 -602 -289 45 -499 305 -481 592 13 198 126 375 298 465
120 63 265 81 398 50z m2788 -985 l335 0 29 -29 c51 -51 31 -138 -36 -162
l-35 -13 0 -132 0 -132 26 -6 c74 -19 100 -112 46 -166 l-28 -28 28 -31 c16
-18 28 -43 28 -59 0 -42 -34 -89 -69 -97 l-31 -7 0 -139 c0 -131 1 -139 19
-139 35 0 72 -41 78 -87 5 -37 2 -45 -25 -73 l-30 -30 -450 0 -450 0 -27 32
c-22 26 -26 39 -22 71 3 21 15 50 27 62 l22 24 -197 3 c-238 4 -225 -4 -225
140 0 143 -9 138 236 138 l195 0 -26 23 c-37 32 -44 89 -16 128 l22 29 -190 0
c-165 0 -197 3 -243 20 -72 27 -121 70 -152 132 -24 49 -26 61 -26 192 0 115
4 148 19 181 38 84 103 135 194 155 23 5 177 7 341 5 165 -3 450 -5 633 -5z
m-1349 -484 c-3 -142 -4 -145 -33 -187 -16 -23 -50 -53 -74 -66 l-44 -23 -560
0 -559 0 7 -72 c21 -213 50 -305 119 -383 40 -44 45 -69 19 -97 -15 -17 -42
-18 -454 -18 -423 0 -439 1 -449 19 -18 35 -11 59 32 108 23 26 50 67 60 90
15 34 57 277 58 333 0 13 -64 15 -533 12 -364 -3 -546 0 -573 7 -60 16 -104
50 -138 105 -29 47 -31 54 -34 182 l-4 134 1582 0 1581 0 -3 -144z m-73 -570
c58 -24 75 -65 75 -178 l0 -98 -260 0 -260 0 0 91 c0 108 15 146 68 177 33 19
52 22 190 22 111 0 162 -4 187 -14z"/>
<path d="M2792 4418 c-9 -9 -12 -69 -12 -209 0 -166 2 -200 16 -213 8 -9 23
-16 32 -16 9 1 94 45 187 98 142 82 170 102 173 123 4 34 -8 42 -187 143 -151
85 -186 97 -209 74z"/>
<path d="M1430 1218 l1 -503 62 -46 c610 -455 1350 -689 2097 -666 345 11 657
65 955 165 l80 27 3 763 2 762 -1600 0 -1600 0 0 -502z"/>
</g>
</svg>
