<?xml version="1.0" standalone="no"?>
<!DOCTYPE svg PUBLIC "-//W3C//DTD SVG 20010904//EN"
 "http://www.w3.org/TR/2001/REC-SVG-20010904/DTD/svg10.dtd">
<svg version="1.0" xmlns="http://www.w3.org/2000/svg"
 width="700.000000pt" height="700.000000pt" viewBox="0 0 700.000000 700.000000"
 preserveAspectRatio="xMidYMid meet">
<metadata>
Created by potrace 1.11, written by Peter Selinger 2001-2013
</metadata>
<g transform="translate(0.000000,700.000000) scale(0.100000,-0.100000)"
fill="#000000" stroke="none">
<path d="M3215 6989 c-1004 -86 -1899 -579 -2513 -1387 -373 -489 -613 -1100
-684 -1737 -17 -154 -17 -585 0 -730 44 -370 129 -694 269 -1020 276 -645 764
-1212 1365 -1586 447 -278 924 -443 1483 -511 130 -16 600 -16 730 0 451 55
818 163 1195 351 729 364 1312 973 1639 1714 144 325 238 675 283 1052 16 139
16 595 0 730 -108 889 -477 1619 -1122 2217 -507 471 -1171 785 -1865 882
-249 35 -546 45 -780 25z m1198 -3162 c499 -1062 919 -1956 932 -1985 l24 -52
-315 2 -316 3 -205 453 -205 452 -823 0 c-646 0 -825 -3 -832 -12 -5 -7 -99
-212 -209 -455 l-199 -442 -319 -1 c-251 0 -317 3 -313 13 25 63 1862 3957
1866 3957 3 0 415 -870 914 -1933z"/>
<path d="M3471 4429 c-17 -35 -147 -320 -290 -634 l-260 -570 576 -3 c317 -1
578 0 580 2 3 3 -563 1255 -573 1265 -2 2 -17 -25 -33 -60z"/>
</g>
</svg>
