<svg height="512pt" viewBox="0 0 512 512" width="512pt" xmlns="http://www.w3.org/2000/svg"><path d="m512 256c0 141.386719-114.613281 256-256 256s-256-114.613281-256-256 114.613281-256 256-256 256 114.613281 256 256zm0 0" fill="#93d632"/><path d="m511.949219 259.910156-66.109375-66.109375-391.394532 13.65625 52.167969 52.171875-58.613281 11.371094 70.667969 70.667969-15.007813 50.3125 112.902344 116.996093c12.855469 1.988282 26.023438 3.023438 39.4375 3.023438 140.078125 0 253.859375-112.511719 255.949219-252.089844zm0 0" fill="#78b22a"/><path d="m445.84375 216.828125c-44.53125-55.664063-113.015625-91.328125-189.84375-91.328125s-145.3125 35.664062-189.84375 91.328125l45.019531 39.171875c33.96875-42.464844 86.214844-69.671875 144.824219-69.671875s110.855469 27.207031 144.824219 69.671875zm0 0" fill="#fdba12"/><path d="m256 125.5c-.03125 0-.0625 0-.09375 0v60.828125h.09375c58.609375 0 110.855469 27.207031 144.824219 69.671875l45.019531-39.171875c-44.53125-55.664063-113.015625-91.328125-189.84375-91.328125zm0 0" fill="#ff8b00"/><path d="m256 340.671875c-61.199219 0-118.257812-27.445313-156.539062-75.300781l-7.496094-9.371094 7.496094-9.371094c38.28125-47.855468 95.339843-75.300781 156.539062-75.300781 61.203125 0 118.257812 27.445313 156.539062 75.300781l7.496094 9.371094-7.496094 9.371094c-38.28125 47.855468-95.339843 75.300781-156.539062 75.300781zm-125.054688-84.671875c32.230469 34.890625 77.152344 54.671875 125.054688 54.671875s92.824219-19.78125 125.054688-54.671875c-32.230469-34.890625-77.152344-54.671875-125.054688-54.671875s-92.824219 19.78125-125.054688 54.671875zm0 0" fill="#635d50"/><path d="m412.539062 246.628906c-38.28125-47.855468-95.335937-75.300781-156.539062-75.300781-.03125 0-.0625 0-.09375 0v30h.09375c47.902344 0 92.824219 19.78125 125.054688 54.671875-32.230469 34.890625-77.152344 54.671875-125.054688 54.671875-.03125 0-.0625 0-.09375 0v30h.09375c61.199219 0 118.257812-27.445313 156.539062-75.300781l7.496094-9.371094zm0 0" fill="#444036"/><path d="m77.871094 226.199219-23.425782-18.742188c49.289063-61.617187 122.753907-96.957031 201.554688-96.957031s152.265625 35.339844 201.554688 96.957031l-23.425782 18.742188c-43.566406-54.464844-108.492187-85.699219-178.128906-85.699219s-134.5625 31.234375-178.128906 85.699219zm0 0" fill="#635d50"/><path d="m256 110.5c-.03125 0-.0625 0-.09375 0v30h.09375c69.636719 0 134.5625 31.234375 178.128906 85.699219l23.425782-18.742188c-49.289063-61.617187-122.753907-96.957031-201.554688-96.957031zm0 0" fill="#444036"/><path d="m319.066406 256c0 34.832031-28.234375 63.066406-63.066406 63.066406s-63.066406-28.234375-63.066406-63.066406 28.234375-63.066406 63.066406-63.066406 63.066406 28.234375 63.066406 63.066406zm0 0" fill="#fff"/><path d="m256 192.933594c-.03125 0-.0625 0-.09375 0v126.128906c.03125 0 .0625.003906.09375.003906 34.832031 0 63.066406-28.238281 63.066406-63.066406 0-34.832031-28.234375-63.066406-63.066406-63.066406zm0 0" fill="#e9edf5"/><path d="m256 334.066406c-43.046875 0-78.066406-35.019531-78.066406-78.066406s35.019531-78.066406 78.066406-78.066406 78.066406 35.019531 78.066406 78.066406-35.019531 78.066406-78.066406 78.066406zm0-156.132812c43.046875 0 78.066406 35.019531 78.066406 78.066406m-78.066406-48.066406c-26.503906 0-48.066406 21.5625-48.066406 48.066406s21.5625 48.066406 48.066406 48.066406 48.066406-21.5625 48.066406-48.066406-21.5625-48.066406-48.066406-48.066406zm0 0" fill="#635d50"/><path d="m256 177.933594 78.066406 78.066406c0-43.046875-35.019531-78.066406-78.066406-78.066406zm0 0" fill="#444036"/><path d="m256 177.933594c-.03125 0-.0625 0-.09375 0v30h.09375c26.503906 0 48.066406 21.5625 48.066406 48.066406s-21.5625 48.066406-48.066406 48.066406c-.03125 0-.0625 0-.09375 0v30h.09375c43.046875 0 78.066406-35.019531 78.066406-78.066406zm0 0" fill="#444036"/><path d="m278.734375 256c0 12.554688-10.179687 22.734375-22.734375 22.734375s-22.734375-10.179687-22.734375-22.734375 10.179687-22.734375 22.734375-22.734375 22.734375 10.179687 22.734375 22.734375zm0 0" fill="#635d50"/><path d="m256 233.265625c-.03125 0-.0625.003906-.09375.003906v45.460938c.03125 0 .0625.003906.09375.003906 12.554688 0 22.734375-10.179687 22.734375-22.734375s-10.179687-22.734375-22.734375-22.734375zm0 0" fill="#444036"/><path d="m48 241h63.175781v30h-63.175781zm0 0" fill="#635d50"/><path d="m334.601562 300.328125h30v71.671875h-30zm0 0" fill="#444036"/><path d="m159.300781 414.976562c-15.476562 0-30.71875-4.066406-44.902343-13.996093-22.625-15.835938-31.6875-38.117188-24.246094-59.601563 6.371094-18.390625 23.414062-31.578125 39.6875-30.660156l-1.679688 29.953125c.113282.003906.171875 0 .175782 0-2.109376.195313-8.296876 4.539063-10.195313 11.707031-2.703125 10.179688 5.828125 18.683594 13.460937 24.027344 11.808594 8.265625 25.808594 10.523438 42.796876 6.902344 14.96875-3.195313 31.777343-10.910156 49.960937-22.9375 32.261719-21.34375 57.269531-48.792969 57.515625-49.066406l22.257812 20.117187c-3.730468 4.128906-76.453124 83.554687-144.832031 83.554687zm0 0" fill="#635d50"/><path d="m304.128906 331.421875-22.253906-20.117187c-.15625.171874-10.316406 11.316406-25.972656 24.894531v38.585937c27.226562-20.382812 46.363281-41.296875 48.226562-43.363281zm0 0" fill="#444036"/></svg>