<?xml version="1.0" encoding="iso-8859-1"?>
<!-- Generator: Adobe Illustrator 21.0.0, SVG Export Plug-In . SVG Version: 6.00 Build 0)  -->
<svg xmlns="http://www.w3.org/2000/svg" xmlns:xlink="http://www.w3.org/1999/xlink" version="1.1" id="Capa_1" x="0px" y="0px" viewBox="0 0 512 512" style="enable-background:new 0 0 512 512;" xml:space="preserve" width="512" height="512">
<g>
	<path style="fill:#CEF8FF;" d="M511.999,157.42c-0.04,9.88-3.121,19.71-9.152,27.82l-0.15,0.2l-211.97,275.39   c-4.201,5.61-9.462,10.03-15.383,13.05c-2.4,1.22-4.921,2.21-7.511,2.96c-3.801,1.09-7.771,1.66-11.832,1.66   c-4.031,0-7.971-0.56-11.742-1.64c-9.022-2.57-17.063-8.11-22.984-16.03L9.153,185.24c-6.031-8.11-9.102-17.94-9.152-27.82   c-0.06-8.26,2.01-16.55,6.251-23.88L46.45,55.65l0.22-0.38C54.742,41.64,68.744,33.5,84.127,33.5h343.746   c15.383,0,29.386,8.14,37.457,21.77l0.42,0.76l39.988,77.51C509.979,140.87,512.049,149.16,511.999,157.42z"/>
	<path style="fill:#50E6FF;" d="M511.999,157.42c-0.04,9.88-3.121,19.71-9.152,27.82l-0.15,0.2l-211.97,275.39   c-4.201,5.61-9.462,10.03-15.383,13.05c-2.4,1.22-4.921,2.21-7.511,2.96c-3.801,1.09-7.771,1.66-11.832,1.66v-445h171.873   c15.383,0,29.386,8.14,37.457,21.77l0.42,0.76l39.988,77.51C509.979,140.87,512.049,149.16,511.999,157.42z"/>
	<path style="fill:#62EBFF;" d="M511.999,157.42H0.001c-0.06-8.26,2.01-16.55,6.251-23.88L46.45,55.65l0.22-0.38   C54.742,41.64,68.744,33.5,84.127,33.5h343.746c15.383,0,29.386,8.14,37.457,21.77l0.42,0.76l39.988,77.51   C509.979,140.87,512.049,149.16,511.999,157.42z"/>
	<path style="fill:#31CAFF;" d="M511.999,157.42H256V33.5h171.873c15.383,0,29.386,8.14,37.457,21.77l0.42,0.76l39.988,77.51   C509.979,140.87,512.049,149.16,511.999,157.42z"/>
	<path style="fill:#50E6FF;" d="M370.022,157.42l-102.19,319.42c-3.801,1.09-7.771,1.66-11.832,1.66   c-4.031,0-7.971-0.56-11.742-1.64L142.979,157.42L256,33.5L370.022,157.42z"/>
	<path style="fill:#31CAFF;" d="M370.022,157.42l-102.19,319.42c-3.801,1.09-7.771,1.66-11.832,1.66v-445L370.022,157.42z"/>
	<polygon style="fill:#CEF8FF;" points="370.022,157.42 142.979,157.42 256,33.5  "/>
	<polygon style="fill:#50E6FF;" points="370.022,157.42 256,157.42 256,33.5  "/>
</g>















</svg>
