<svg height="484pt" viewBox="0 -2 484.70042 484" width="484pt" xmlns="http://www.w3.org/2000/svg" xmlns:xlink="http://www.w3.org/1999/xlink"><linearGradient id="a"><stop offset="0" stop-color="#e93e3a"/><stop offset=".36" stop-color="#ed683c"/><stop offset=".716" stop-color="#f3903f"/><stop offset="1" stop-color="#fdc70c"/></linearGradient><linearGradient id="b" gradientUnits="userSpaceOnUse" x1="241.582209" x2="243.406209" xlink:href="#a" y1="482.59821" y2="-15.15379"/><linearGradient id="c" gradientUnits="userSpaceOnUse" x1="213.566209" x2="215.390209" xlink:href="#a" y1="482.49421" y2="-15.24979"/><linearGradient id="d" gradientUnits="userSpaceOnUse" x1="121.582209" x2="123.406209" xlink:href="#a" y1="482.15821" y2="-15.58579"/><linearGradient id="e" gradientUnits="userSpaceOnUse" x1="242.022209" x2="243.846209" xlink:href="#a" y1="482.59821" y2="-15.14579"/><linearGradient id="f" gradientUnits="userSpaceOnUse" x1="361.582209" x2="363.398209" xlink:href="#a" y1="483.03821" y2="-14.71379"/><linearGradient id="g" gradientUnits="userSpaceOnUse" x1="241.142209" x2="242.966209" xlink:href="#a" y1="482.59821" y2="-15.15379"/><linearGradient id="h" gradientUnits="userSpaceOnUse" x1="241.078209" x2="242.902209" xlink:href="#a" y1="482.59821" y2="-15.15379"/><linearGradient id="i" gradientUnits="userSpaceOnUse" x1="48.982209" x2="50.806209" xlink:href="#a" y1="481.89421" y2="-15.85779"/><linearGradient id="j" gradientUnits="userSpaceOnUse" x1="434.654209" x2="436.478209" xlink:href="#a" y1="483.30221" y2="-14.44179"/><linearGradient id="k" gradientUnits="userSpaceOnUse" x1="37.814209" x2="39.638209" xlink:href="#a" y1="481.85421" y2="-15.89779"/><linearGradient id="l" gradientUnits="userSpaceOnUse" x1="446.302209" x2="448.126209" xlink:href="#a" y1="483.35021" y2="-14.40179"/><path d="m242.351562 112.351562c-88.367187 0-160 71.632813-160 160 0 88.363282 71.632813 160 160 160 88.363282 0 160-71.636718 160-160-.101562-88.324218-71.679687-159.898437-160-160zm0 304c-79.53125 0-144-64.472656-144-144 0-79.53125 64.46875-144 144-144 79.527344 0 144 64.46875 144 144-.09375 79.488282-64.511718 143.90625-144 144zm0 0" fill="url(#b)"/><path d="m250.351562 249.820312v-73.46875h-16v73.46875c-6.777343 2.421876-12.109374 7.753907-14.53125 14.53125h-57.46875v16h57.46875c3.703126 10.53125 14.191407 17.109376 25.28125 15.851563 11.09375-1.253906 19.847657-10.007813 21.101563-21.101563 1.257813-11.089843-5.320313-21.578124-15.851563-25.28125zm-8 30.53125c-4.417968 0-8-3.582031-8-8 0-4.417968 3.582032-8 8-8 4.417969 0 8 3.582032 8 8 0 4.417969-3.582031 8-8 8zm0 0" fill="url(#c)"/><path d="m114.351562 264.351562h16v16h-16zm0 0" fill="url(#d)"/><path d="m234.351562 384.351562h16v16h-16zm0 0" fill="url(#e)"/><path d="m354.351562 264.351562h16v16h-16zm0 0" fill="url(#f)"/><path d="m234.351562 144.351562h16v16h-16zm0 0" fill="url(#g)"/><path d="m368.429688 416.964844c60.390624-52.582032 81.808593-137.121094 53.734374-212.113282-28.074218-74.992187-99.738281-124.6875-179.8125-124.6875-80.074218 0-151.742187 49.695313-179.816406 124.6875-28.070312 74.992188-6.65625 159.53125 53.734375 212.113282-16.578125 3.210937-27.808593 18.746094-25.660156 35.496094 2.152344 16.75 16.949219 28.941406 33.800781 27.855468 16.851563-1.085937 29.957032-15.078125 29.941406-31.964844-.019531-1.929687-.214843-3.851562-.585937-5.746093 55.5 28.992187 121.671875 28.992187 177.167969 0-.367188 1.894531-.5625 3.816406-.582032 5.746093-.019531 16.886719 13.085938 30.878907 29.9375 31.964844 16.851563 1.085938 31.648438-11.105468 33.800782-27.855468s-9.082032-32.285157-25.660156-35.496094zm-246.078126 47.386718c-8.839843 0-16-7.164062-16-16 0-8.839843 7.160157-16 16-16 8.835938 0 16 7.160157 16 16 0 8.835938-7.164062 16-16 16zm-56-192c0-97.203124 78.796876-176 176-176 97.199219 0 176 78.796876 176 176 0 97.199219-78.800781 176-176 176-97.15625-.113281-175.890624-78.84375-176-176zm296 192c-8.839843 0-16-7.164062-16-16 0-8.839843 7.160157-16 16-16 8.835938 0 16 7.160157 16 16 0 8.835938-7.164062 16-16 16zm0 0" fill="url(#b)"/><path d="m31.390625 199.503906c2.121094-.003906 4.15625-.84375 5.65625-2.34375l124.457031-124.457031c3.121094-3.125 3.121094-8.1875 0-11.3125-6.765625-6.742187-14.585937-12.332031-23.152344-16.542969v-4.496094c0-13.257812 10.742188-24 24-24h160c13.253907 0 24 10.742188 24 24v4.496094c-8.570312 4.210938-16.390624 9.800782-23.152343 16.542969-3.125 3.125-3.125 8.1875 0 11.3125l124.453125 124.445313c3.125 3.125 8.191406 3.125 11.3125 0 34.3125-34.390626 34.3125-90.0625 0-124.453126l-11.3125-11.304687c-22.367188-22.316406-54.984375-30.929687-85.453125-22.558594-.816407-21.4375-18.398438-38.414062-39.847657-38.480469h-160c-21.453124.066407-39.035156 17.042969-39.847656 38.480469-30.472656-8.371093-63.089844.242188-85.457031 22.558594l-11.3125 11.3125c-34.3125 34.390625-34.3125 90.066406 0 124.457031 1.5 1.5 3.535156 2.339844 5.65625 2.34375zm404.953125-126.800781 11.308594 11.3125c25.933594 25.925781 28.234375 67.203125 5.347656 95.855469l-112.515625-112.511719c28.652344-22.890625 69.929687-20.589844 95.859375 5.34375zm-399.296875 11.3125 11.3125-11.3125c25.925781-25.933594 67.203125-28.234375 95.855469-5.34375l-112.511719 112.511719c-22.890625-28.652344-20.589844-69.929688 5.34375-95.855469zm0 0" fill="url(#h)"/><path d="m18.351562 272.351562c.042969 51.296876 17.644532 101.03125 49.878907 140.933594l12.441406-10.078125c-29.9375-37.046875-46.285156-83.226562-46.320313-130.855469zm0 0" fill="url(#i)"/><path d="m466.351562 272.351562h-16c-.035156 47.628907-16.382812 93.808594-46.320312 130.855469l12.4375 10.078125c32.234375-39.902344 49.839844-89.636718 49.882812-140.933594zm0 0" fill="url(#j)"/><path d="m2.941406 363.183594c13.03125 34.121094 33.160156 65.089844 59.058594 90.847656l11.261719-11.359375c-24.269531-24.148437-43.140625-53.171875-55.367188-85.152344zm0 0" fill="url(#k)"/><path d="m411.4375 442.671875 11.265625 11.359375c25.894531-25.761719 46.027344-56.726562 59.0625-90.847656l-14.953125-5.664063c-12.230469 31.980469-31.101562 61-55.375 85.152344zm0 0" fill="url(#l)"/></svg>