<?xml version="1.0" encoding="iso-8859-1"?>
<!-- Generator: Adobe Illustrator 19.0.0, SVG Export Plug-In . SVG Version: 6.00 Build 0)  -->
<svg version="1.1" id="Capa_1" xmlns="http://www.w3.org/2000/svg" xmlns:xlink="http://www.w3.org/1999/xlink" x="0px" y="0px"
	 viewBox="0 0 512 512" style="enable-background:new 0 0 512 512;" xml:space="preserve">
<path style="fill:#415F78;" d="M512,256c0,141.385-114.615,256-256,256S0,397.385,0,256S114.615,0,256,0S512,114.615,512,256z"/>
<path style="fill:#64D2CD;" d="M315.617,388.978C319.789,407.316,322,426.399,322,446c0,20.352-2.387,40.144-6.875,59.125
	C296.144,509.613,276.352,512,256,512C114.615,512,0,397.385,0,256c0-20.352,2.387-40.144,6.875-59.125
	C25.856,192.387,45.648,190,66,190c4.393,0,8.761,0.112,13.1,0.33c-0.113,0.839-0.191,1.682-0.191,2.536
	c0,19.588,30.241,35.467,67.546,35.467c15.641,0,30.028-2.799,41.477-7.485c20.574,11.166,39.436,25.079,56.118,41.232
	c-7.744,14.415-12.382,32.651-12.382,52.503c0,46.622,25.52,84.417,57,84.417C298.417,399,307.592,395.368,315.617,388.978z"/>
<path style="fill:#8CEBEB;" d="M315.617,388.978C319.789,407.316,322,426.399,322,446c0,20.352-2.387,40.144-6.875,59.125
	c-3.911,0.925-7.865,1.737-11.843,2.481C147.183,488.569,23.431,364.817,4.394,208.718c0.744-3.978,1.556-7.932,2.481-11.843
	C25.856,192.387,45.648,190,66,190c4.093,0,8.163,0.096,12.209,0.286c0.298,0.014,0.592,0.038,0.89,0.053
	c-0.112,0.836-0.19,1.677-0.19,2.527c0,19.588,30.241,35.467,67.546,35.467c15.633,0,30.013-2.796,41.46-7.478
	c20.578,11.167,39.451,25.07,56.135,41.225c-7.744,14.415-12.383,32.651-12.383,52.503c0,46.622,25.52,84.417,57,84.417
	C298.417,399,307.592,395.368,315.617,388.978z"/>
<path style="fill:#3CAF96;" d="M206.14,438.431c7.811,7.811,7.811,20.474,0,28.284l-31.935,31.935
	c-36.065-12.153-68.531-32.122-95.394-57.891l29.902-29.902c7.811-7.811,20.474-7.811,28.284,0L151.14,425
	c2.121,2.121,3.646,4.606,4.615,7.248l7.959-7.959c7.811-7.811,20.474-7.811,28.284,0L206.14,438.431z M243.387,261.434
	c-4.594,0.353-9.089,2.271-12.603,5.784l-77.426,77.426c-7.811,7.811-7.811,20.474,0,28.284L167.5,387.07
	c7.811,7.811,20.474,7.811,28.284,0l13.05-13.05c0.289,0.33,0.57,0.664,0.884,0.979l48.713,48.713
	c7.811,7.811,20.474,7.811,28.284,0l29.944-29.944C305.993,342.312,279.88,296.516,243.387,261.434z M112.794,353.701l49.497-49.498
	c7.81-7.811,7.81-20.474,0-28.284l-14.142-14.142l40.519-40.519c-0.017-0.01-0.035-0.019-0.052-0.029
	c-33.059-18.072-70.54-29.061-110.408-30.933L49.155,219.35c-7.811,7.81-7.811,20.474,0,28.284l14.142,14.142l-7.071,7.071
	c-7.811,7.811-7.811,20.474,0,28.284l14.142,14.142c-7.81,7.811-7.81,20.474,0,28.284l14.142,14.142
	C92.321,361.511,104.984,361.511,112.794,353.701z"/>
<path style="fill:#1E9682;" d="M196.528,476.328l-22.323,22.323c-36.065-12.153-68.531-32.122-95.394-57.891l27.452-27.452
	C132.624,438.864,163.07,460.224,196.528,476.328z"/>
<path style="fill:#E65AA0;" d="M460,200c18.474,0,35.472,6.279,49.014,16.796C510.979,229.577,512,242.669,512,256
	c0,34.282-6.756,66.981-18.98,96.863C482.95,357.434,471.778,360,460,360c-44.183,0-80-35.817-80-80S415.817,200,460,200z"/>
<path style="fill:#BE4178;" d="M500,280c0,5.523-4.477,10-10,10c0,0-43.23-0.027-62.408-0.068c-4.872-0.011-8.421,4.572-7.249,9.302
	c0.012,0.05,0.025,0.1,0.037,0.15c0.827,3.309,3.824,5.617,7.235,5.617h42.042c5.326,0,9.977,4.019,10.321,9.335
	C480.355,320.159,475.743,325,470,325h-22.07c-6.68,0-10.052,8.167-5.227,12.786c9.98,9.552,22.429,16.546,36.296,19.925
	c-6.092,1.485-12.451,2.289-19,2.289c-44.183,0-80-35.817-80-80s35.817-80,80-80c6.549,0,12.908,0.805,19,2.289
	c-13.867,3.379-26.316,10.373-36.296,19.925C437.877,226.832,441.25,235,447.93,235h21.727c5.03,0,9.539,3.566,10.24,8.547
	C480.766,249.716,476,255,470,255h-42.384c-3.411,0-6.409,2.308-7.235,5.617c-0.012,0.05-0.025,0.1-0.037,0.15
	c-1.172,4.73,2.377,9.312,7.249,9.302C446.77,270.027,490,270,490,270C495.523,270,500,274.477,500,280z"/>
<path style="fill:#DCA041;" d="M181,0c33.137,0,60,26.863,60,60s-26.863,60-60,60s-60-26.863-60-60S147.863,0,181,0z"/>
<path style="fill:#B97D23;" d="M195.25,118.283C190.681,119.396,185.912,120,181,120c-33.137,0-60-26.863-60-60s26.863-60,60-60
	c4.912,0,9.681,0.604,14.25,1.717c-19.79,4.823-35.733,19.454-42.388,38.453c0.7-0.1,1.41-0.17,2.138-0.17c8.284,0,15,6.716,15,15
	s-6.716,15-15,15c-1.675,0-3.28-0.286-4.784-0.793C153.924,93.26,171.908,112.595,195.25,118.283z M180,30c0,5.523,4.477,10,10,10
	s10-4.477,10-10s-4.477-10-10-10S180,24.477,180,30z M200,80c-5.523,0-10,4.477-10,10s4.477,10,10,10s10-4.477,10-10
	S205.523,80,200,80z"/>
<path style="fill:#6C9BAA;" d="M430,400c0,11.046-8.954,20-20,20s-20-8.954-20-20s8.954-20,20-20S430,388.954,430,400z"/>
<path style="fill:#B4D7DC;" d="M309.99,48.091l-4.732,2.588c-0.839,0.459-1.529,1.149-1.988,1.988l-2.588,4.732
	c-1.897,3.468-6.877,3.468-8.774,0l-2.588-4.732c-0.459-0.839-1.149-1.529-1.988-1.988l-4.732-2.588
	c-3.468-1.896-3.468-6.877,0-8.773l4.732-2.588c0.839-0.459,1.529-1.149,1.988-1.988l2.588-4.732c1.897-3.468,6.877-3.468,8.774,0
	l2.588,4.732c0.459,0.839,1.149,1.529,1.988,1.988l4.732,2.588C313.458,41.214,313.458,46.195,309.99,48.091z M339.99,221.909
	l-4.732-2.588c-0.839-0.459-1.529-1.148-1.988-1.988l-2.588-4.732c-1.897-3.468-6.877-3.468-8.774,0l-2.588,4.732
	c-0.459,0.839-1.149,1.529-1.988,1.988l-4.732,2.588c-3.468,1.897-3.468,6.877,0,8.774l4.732,2.588
	c0.839,0.459,1.529,1.149,1.988,1.988l2.588,4.732c1.897,3.468,6.877,3.468,8.774,0l2.588-4.732
	c0.459-0.839,1.149-1.529,1.988-1.988l4.732-2.588C343.458,228.786,343.458,223.805,339.99,221.909z"/>
<path style="fill:#D29137;" d="M377.399,78.091l-4.732,2.588c-0.839,0.459-1.529,1.149-1.988,1.988l-2.588,4.732
	c-1.897,3.468-6.877,3.468-8.774,0l-2.588-4.732c-0.459-0.839-1.149-1.529-1.988-1.988l-4.732-2.588
	c-3.468-1.896-3.468-6.877,0-8.773l4.732-2.588c0.839-0.459,1.529-1.149,1.988-1.988l2.588-4.732c1.897-3.468,6.877-3.468,8.774,0
	l2.588,4.732c0.459,0.839,1.149,1.529,1.988,1.988l4.732,2.588C380.867,71.214,380.867,76.195,377.399,78.091z M287.399,169.318
	l-4.732-2.588c-0.839-0.459-1.529-1.149-1.988-1.988l-2.588-4.732c-1.897-3.468-6.877-3.468-8.774,0l-2.588,4.732
	c-0.459,0.839-1.149,1.529-1.988,1.988l-4.732,2.588c-3.468,1.896-3.468,6.877,0,8.773l4.732,2.588
	c0.839,0.459,1.529,1.149,1.988,1.988l2.588,4.732c1.897,3.468,6.877,3.468,8.774,0l2.588-4.732
	c0.459-0.839,1.149-1.529,1.988-1.988l4.732-2.588C290.867,176.195,290.867,171.214,287.399,169.318z"/>
<path style="fill:#FFC772;" d="M99.99,148.091l-4.732,2.588c-0.839,0.459-1.529,1.149-1.988,1.988l-2.588,4.732
	c-1.897,3.468-6.877,3.468-8.774,0l-2.588-4.732c-0.459-0.839-1.149-1.529-1.988-1.988l-4.732-2.588
	c-3.468-1.896-3.468-6.877,0-8.773l4.732-2.588c0.839-0.459,1.529-1.149,1.988-1.988l2.588-4.732c1.897-3.468,6.877-3.468,8.774,0
	l2.588,4.732c0.459,0.839,1.149,1.529,1.988,1.988l4.732,2.588C103.458,141.214,103.458,146.195,99.99,148.091z M357.399,319.318
	l-4.732-2.588c-0.839-0.459-1.529-1.149-1.988-1.988l-2.588-4.732c-1.897-3.468-6.877-3.468-8.774,0l-2.588,4.732
	c-0.459,0.839-1.149,1.529-1.988,1.988l-4.732,2.588c-3.468,1.896-3.468,6.877,0,8.773l4.732,2.588
	c0.839,0.459,1.529,1.149,1.988,1.988l2.588,4.732c1.897,3.468,6.877,3.468,8.774,0l2.588-4.732
	c0.459-0.839,1.149-1.529,1.988-1.988l4.732-2.588C360.867,326.195,360.867,321.214,357.399,319.318z"/>
<path style="fill:#3C5064;" d="M419.99,148.091l-4.732,2.588c-0.839,0.459-1.529,1.149-1.988,1.988l-2.588,4.732
	c-1.897,3.468-6.877,3.468-8.774,0l-2.588-4.732c-0.459-0.839-1.149-1.529-1.988-1.988l-4.732-2.588
	c-3.468-1.896-3.468-6.877,0-8.773l4.732-2.588c0.839-0.459,1.529-1.149,1.988-1.988l2.588-4.732c1.897-3.468,6.877-3.468,8.774,0
	l2.588,4.732c0.459,0.839,1.149,1.529,1.988,1.988l4.732,2.588C423.458,141.214,423.458,146.195,419.99,148.091z M209.99,161.909
	l-4.732-2.588c-0.839-0.459-1.529-1.148-1.988-1.988l-2.588-4.732c-1.897-3.468-6.877-3.468-8.774,0l-2.588,4.732
	c-0.459,0.839-1.149,1.529-1.988,1.988l-4.732,2.588c-3.468,1.897-3.468,6.877,0,8.774l4.732,2.588
	c0.839,0.459,1.529,1.149,1.988,1.988l2.588,4.732c1.897,3.468,6.877,3.468,8.774,0l2.588-4.732
	c0.459-0.839,1.149-1.529,1.988-1.988l4.732-2.588C213.458,168.786,213.458,163.805,209.99,161.909z M340,120
	c-11.046,0-20,8.954-20,20s8.954,20,20,20s20-8.954,20-20S351.046,120,340,120z"/>
<g>
</g>
<g>
</g>
<g>
</g>
<g>
</g>
<g>
</g>
<g>
</g>
<g>
</g>
<g>
</g>
<g>
</g>
<g>
</g>
<g>
</g>
<g>
</g>
<g>
</g>
<g>
</g>
<g>
</g>
</svg>
