<?xml version="1.0" encoding="iso-8859-1"?>
<!-- Generator: Adobe Illustrator 19.0.0, SVG Export Plug-In . SVG Version: 6.00 Build 0)  -->
<svg xmlns="http://www.w3.org/2000/svg" xmlns:xlink="http://www.w3.org/1999/xlink" version="1.1" id="Capa_1" x="0px" y="0px" viewBox="0 0 501 501" style="enable-background:new 0 0 501 501;" xml:space="preserve" width="512" height="512">
<g>
	<path style="fill:#409A8F;" d="M486.592,310.654C457.893,414.08,363.068,489.999,250.502,490   C115.331,490.001,5.856,380.828,5.501,245.658C5.206,133.577,80.181,38.975,182.72,9.517C193.376,6.455,204,14.465,204,25.553   v21.78C204,181.078,312.422,289.5,446.167,289.5h24.353C481.552,289.5,489.542,300.022,486.592,310.654z"/>
	<path style="fill:#33877C;" d="M472.849,348H184.5V41.036c9.587-3.125,9.436-5.667,19.5-7.605v13.903   C204,181.078,312.422,289.5,446.167,289.5h24.353c11.033,0,19.022,10.522,16.073,21.153   C483.01,323.563,478.397,336.042,472.849,348z"/>
	<path style="fill:#FFD69E;" d="M495.5,245c0,25.793-3.997,50.651-11.386,74H174.5V12.036C198.428,4.234,223.968,0,250.5,0   C385.81,0,495.5,109.69,495.5,245z"/>
	<path style="fill:#FFE2BD;" d="M495.5,245c0,25.793-3.997,50.651-11.386,74H203.5V4.526C218.711,1.564,234.422,0,250.5,0   C385.81,0,495.5,109.69,495.5,245z"/>
	<path style="fill:#FFBD61;" d="M304.5,234v10c0,2.761-2.239,5-5,5h-70c-2.761,0-5-2.239-5-5v-10c0-2.761,2.239-5,5-5h70   C302.261,229,304.5,231.239,304.5,234z M429.5,129h-20c-2.761,0-5,2.239-5,5v10c0,2.761,2.239,5,5,5h20c2.761,0,5-2.239,5-5v-10   C434.5,131.239,432.261,129,429.5,129z M494.966,229H469.5c-2.761,0-5,2.239-5,5v10c0,2.761,2.239,5,5,5h25.949   c0.021-1.332,0.051-2.663,0.051-4C495.5,239.623,495.307,234.291,494.966,229z M369.5,129h-30c-2.761,0-5,2.239-5,5v10   c0,2.761,2.239,5,5,5h30c2.761,0,5-2.239,5-5v-10C374.5,131.239,372.261,129,369.5,129z M429.5,229h-20c-2.761,0-5,2.239-5,5v10   c0,2.761,2.239,5,5,5h20c2.761,0,5-2.239,5-5v-10C434.5,231.239,432.261,229,429.5,229z M299.5,129h-70c-2.761,0-5,2.239-5,5v10   c0,2.761,2.239,5,5,5h70c2.761,0,5-2.239,5-5v-10C304.5,131.239,302.261,129,299.5,129z M369.5,229h-30c-2.761,0-5,2.239-5,5v10   c0,2.761,2.239,5,5,5h30c2.761,0,5-2.239,5-5v-10C374.5,231.239,372.261,229,369.5,229z"/>
	<path style="fill:#FFC981;" d="M492.861,209H219.5c-2.761,0-5-2.239-5-5v-30c0-2.761,2.239-5,5-5h263.964   C487.669,181.897,490.837,195.261,492.861,209z M219.5,109h234.804c-9.697-14.502-20.902-27.907-33.388-40H219.5   c-2.761,0-5,2.239-5,5v30C214.5,106.761,216.739,109,219.5,109z"/>
	<path style="fill:#EE9500;" d="M374.5,84v10c0,2.761-2.239,5-5,5h-30c-2.761,0-5-2.239-5-5V84c0-2.761,2.239-5,5-5h30   C372.261,79,374.5,81.239,374.5,84z M269.5,179h-40c-2.761,0-5,2.239-5,5v10c0,2.761,2.239,5,5,5h40c2.761,0,5-2.239,5-5v-10   C274.5,181.239,272.261,179,269.5,179z M369.5,179h-30c-2.761,0-5,2.239-5,5v10c0,2.761,2.239,5,5,5h30c2.761,0,5-2.239,5-5v-10   C374.5,181.239,372.261,179,369.5,179z M430.874,79.215C430.435,79.089,429.98,79,429.5,79h-20c-2.761,0-5,2.239-5,5v10   c0,2.761,2.239,5,5,5h20c2.761,0,5-2.239,5-5V84c0-0.29-0.038-0.57-0.085-0.846C433.248,81.829,432.069,80.515,430.874,79.215z    M279.5,79h-50c-2.761,0-5,2.239-5,5v10c0,2.761,2.239,5,5,5h50c2.761,0,5-2.239,5-5V84C284.5,81.239,282.261,79,279.5,79z    M486.496,179H469.5c-2.761,0-5,2.239-5,5v10c0,2.761,2.239,5,5,5h21.669C489.883,192.231,488.326,185.559,486.496,179z M429.5,179   h-20c-2.761,0-5,2.239-5,5v10c0,2.761,2.239,5,5,5h20c2.761,0,5-2.239,5-5v-10C434.5,181.239,432.261,179,429.5,179z M234.5,49   c5.523,0,10-4.477,10-10s-4.477-10-10-10s-10,4.477-10,10S228.977,49,234.5,49z M264.5,49c5.523,0,10-4.477,10-10s-4.477-10-10-10   s-10,4.477-10,10S258.977,49,264.5,49z M294.5,29c-5.523,0-10,4.477-10,10s4.477,10,10,10s10-4.477,10-10S300.023,29,294.5,29z"/>
	<path style="fill:#013963;" d="M253.408,501H49.5c-8.284,0-15-6.716-15-15V241c0-8.284,6.716-15,15-15h203.908   c8.284,0,15,6.716,15,15v245C268.408,494.284,261.692,501,253.408,501z"/>
	<path style="fill:#014C7E;" d="M253.408,501H74.155c-8.284,0-15-6.716-15-15V241c0-8.284,6.716-15,15-15h179.253   c8.284,0,15,6.716,15,15v245C268.408,494.284,261.692,501,253.408,501z"/>
	<path style="fill:#067FC8;" d="M97.086,450.942v11.609c0,5.523-4.477,10-10,10H69.155c-5.523,0-10-4.477-10-10v-11.609   c0-5.522,4.477-10,10-10h17.931C92.609,440.942,97.086,445.42,97.086,450.942z M119.098,384.046h17.931c5.523,0,10-4.477,10-10   v-11.609c0-5.522-4.477-10-10-10h-17.931c-5.523,0-10,4.478-10,10v11.609C109.098,379.569,113.575,384.046,119.098,384.046z    M87.086,396.689H69.155c-5.523,0-10,4.478-10,10v11.609c0,5.523,4.477,10,10,10h17.931c5.523,0,10-4.477,10-10v-11.609   C97.086,401.167,92.609,396.689,87.086,396.689z M119.098,428.299h17.931c5.523,0,10-4.477,10-10v-11.609c0-5.522-4.477-10-10-10   h-17.931c-5.523,0-10,4.478-10,10v11.609C109.098,423.822,113.575,428.299,119.098,428.299z M186.971,396.689H169.04   c-5.523,0-10,4.478-10,10v11.609c0,5.523,4.477,10,10,10h17.931c5.523,0,10-4.477,10-10v-11.609   C196.971,401.167,192.494,396.689,186.971,396.689z M186.971,352.437H169.04c-5.523,0-10,4.478-10,10v11.609   c0,5.523,4.477,10,10,10h17.931c5.523,0,10-4.477,10-10v-11.609C196.971,356.914,192.494,352.437,186.971,352.437z    M186.971,440.942h-67.874c-5.523,0-10,4.478-10,10v11.609c0,5.523,4.477,10,10,10h67.874c5.523,0,10-4.477,10-10v-11.609   C196.971,445.42,192.494,440.942,186.971,440.942z M87.086,352.437H69.155c-5.523,0-10,4.478-10,10v11.609c0,5.523,4.477,10,10,10   h17.931c5.523,0,10-4.477,10-10v-11.609C97.086,356.914,92.609,352.437,87.086,352.437z"/>
	<path style="fill:#368ED7;" d="M180.953,352.437h6.018c5.523,0,10,4.478,10,10v11.609c0,5.523-4.477,10-10,10h-6.018   c-5.523,0-10-4.477-10-10v-11.609C170.953,356.914,175.43,352.437,180.953,352.437z M147.029,418.299v-11.609   c0-5.522-4.477-10-10-10h-6.018c-5.523,0-10,4.478-10,10v11.609c0,5.523,4.477,10,10,10h6.018   C142.552,428.299,147.029,423.822,147.029,418.299z M196.971,418.299v-11.609c0-5.522-4.477-10-10-10h-6.018   c-5.523,0-10,4.478-10,10v11.609c0,5.523,4.477,10,10,10h6.018C192.494,428.299,196.971,423.822,196.971,418.299z M121.01,362.437   v11.609c0,5.523,4.477,10,10,10h6.018c5.523,0,10-4.477,10-10v-11.609c0-5.522-4.477-10-10-10h-6.018   C125.488,352.437,121.01,356.914,121.01,362.437z M196.971,462.552v-11.609c0-5.522-4.477-10-10-10H131.01c-5.523,0-10,4.478-10,10   v11.609c0,5.523,4.477,10,10,10h55.961C192.494,472.552,196.971,468.075,196.971,462.552z M97.086,462.552v-11.609   c0-5.522-4.477-10-10-10h-6.018c-5.523,0-10,4.478-10,10v11.609c0,5.523,4.477,10,10,10h6.018   C92.609,472.552,97.086,468.075,97.086,462.552z M71.068,362.437v11.609c0,5.523,4.477,10,10,10h6.018c5.523,0,10-4.477,10-10   v-11.609c0-5.522-4.477-10-10-10h-6.018C75.545,352.437,71.068,356.914,71.068,362.437z M97.086,418.299v-11.609   c0-5.522-4.477-10-10-10h-6.018c-5.523,0-10,4.478-10,10v11.609c0,5.523,4.477,10,10,10h6.018   C92.609,428.299,97.086,423.822,97.086,418.299z"/>
	<path style="fill:#FF4927;" d="M212.144,418.299v-55.862c0-5.523,4.477-10,10-10h11.609c5.523,0,10,4.477,10,10v55.862   c0,5.523-4.477,10-10,10h-11.609C216.621,428.299,212.144,423.822,212.144,418.299z"/>
	<path style="fill:#FF5526;" d="M243.753,362.437v55.862c0,5.232-4.02,9.519-9.138,9.957c-5.118-0.438-9.138-4.725-9.138-9.957   v-55.862c0-5.231,4.02-9.519,9.138-9.956C239.733,352.918,243.753,357.205,243.753,362.437z"/>
	<path style="fill:#409A8F;" d="M212.144,462.552v-11.609c0-5.523,4.477-10,10-10h11.609c5.523,0,10,4.477,10,10v11.609   c0,5.523-4.477,10-10,10h-11.609C216.621,472.552,212.144,468.075,212.144,462.552z"/>
	<path style="fill:#53B1A2;" d="M243.753,450.942v11.609c0,5.499-4.44,9.958-9.93,9.997c-5.49-0.039-9.93-4.498-9.93-9.997v-11.609   c0-5.499,4.44-9.958,9.93-9.996C239.313,440.984,243.753,445.443,243.753,450.942z"/>
	<path style="fill:#2FCFDC;" d="M233.753,320.828H69.155c-5.523,0-10-4.477-10-10v-49.54c0-5.523,4.477-10,10-10h164.598   c5.523,0,10,4.477,10,10v49.54C243.753,316.35,239.276,320.828,233.753,320.828z"/>
	<path style="fill:#81E1E9;" d="M233.753,320.828H88.121c-5.523,0-10-4.477-10-10v-49.54c0-5.523,4.477-10,10-10h145.632   c5.523,0,10,4.477,10,10v49.54C243.753,316.35,239.276,320.828,233.753,320.828z"/>
	<path style="fill:#368ED7;" d="M89.098,271.113L89.098,271.113c0,5.523-4.477,10-10,10c-5.523,0-10-4.477-10-10l0,0   c0-5.523,4.477-10,10-10C84.621,261.113,89.098,265.59,89.098,271.113z M109.098,261.113c-5.523,0-10,4.477-10,10l0,0   c0,5.523,4.477,10,10,10c5.523,0,10-4.477,10-10l0,0C119.098,265.59,114.621,261.113,109.098,261.113z M139.098,261.113   c-5.523,0-10,4.477-10,10l0,0c0,5.523,4.477,10,10,10c5.523,0,10-4.477,10-10l0,0C149.098,265.59,144.621,261.113,139.098,261.113z   "/>
</g>















</svg>
