<?xml version="1.0" encoding="iso-8859-1"?>
<!-- Generator: Adobe Illustrator 19.0.0, SVG Export Plug-In . SVG Version: 6.00 Build 0)  -->
<svg version="1.1" id="Layer_1" xmlns="http://www.w3.org/2000/svg" xmlns:xlink="http://www.w3.org/1999/xlink" x="0px" y="0px"
	 viewBox="0 0 511.998 511.998" style="enable-background:new 0 0 511.998 511.998;" xml:space="preserve">
<g>
	<path style="fill:#355EC9;" d="M94.931,443.028V314.186c6.872,0.67,14.977,1.018,23.822,1.018c53.91,0,97.499-14.221,126.068-41.14
		c23.403-22.233,36.296-55.357,36.296-93.266c0-36.819-15.399-70.111-42.222-91.321c-26.369-21.091-65.118-31.345-118.461-31.345
		c-46.209,0-85.256,2.658-116.066,7.903C1.846,66.461,0,68.649,0,71.208v371.82c0,2.9,2.349,5.249,5.249,5.249h84.433
		C92.581,448.277,94.931,445.928,94.931,443.028z M94.931,237.969V135.226c5.155-0.989,14.836-2.297,29.972-2.297
		c38.95,0,61.288,18.263,61.288,50.104c0,35.223-25.416,56.255-67.997,56.255C107.98,239.288,100.705,238.885,94.931,237.969z"/>
	<path style="fill:#355EC9;" d="M434.12,270.894c-34.787-12.174-40.655-17.971-40.655-26.357c0-14.893,17.026-17.116,27.18-17.116
		c21.559,0,44.048,8.088,56.755,15.012c1.424,0.775,3.116,0.85,4.604,0.206c1.48-0.647,2.587-1.94,2.99-3.506l15.098-58.704
		c0.615-2.396-0.525-4.896-2.736-6.001c-15.674-7.836-44.789-16.211-79.511-16.211c-68.603,0-116.517,38.946-116.517,94.62
		c-0.464,27.163,13.263,64.352,81.308,87.257c33.052,11.019,36.67,16.745,36.67,26.334c0,4.371,0,17.675-31.093,17.675
		c-23.293,0-54.742-10.345-70.523-19.928c-1.432-0.867-3.183-1.004-4.728-0.365c-1.541,0.636-2.69,1.969-3.093,3.59l-15.094,60.948
		c-0.575,2.324,0.495,4.741,2.599,5.879c23.092,12.48,56.203,19.64,90.839,19.64c76.353,0,123.784-35.862,123.784-93.66
		C511.393,316.762,487.365,289.215,434.12,270.894z"/>
</g>
<g>
</g>
<g>
</g>
<g>
</g>
<g>
</g>
<g>
</g>
<g>
</g>
<g>
</g>
<g>
</g>
<g>
</g>
<g>
</g>
<g>
</g>
<g>
</g>
<g>
</g>
<g>
</g>
<g>
</g>
</svg>
