<svg height="512pt" viewBox="-64 0 512 512.001" width="512pt" xmlns="http://www.w3.org/2000/svg"><path d="m111.261719 21.632812v103.019532c0 5.6875-4.613281 10.300781-10.300781 10.300781h-70.054688v-123.621094h70.054688c5.6875 0 10.300781 4.613281 10.300781 10.300781zm0 0" fill="#ffe36c"/><path d="m290.75 0h-26.226562c-5.171876 0-9.539063 3.832031-10.214844 8.957031l-9.125 69.335938v6.953125l64.902344 1.289062v-8.238281l-9.125-69.335937c-.671876-5.128907-5.042969-8.960938-10.210938-8.960938zm0 0" fill="#ffe36c"/><path d="m315.238281 78.292969h-75.203125c-5.691406 0-10.300781 4.613281-10.300781 10.304687v25.753906h95.804687v-25.753906c0-5.691406-4.613281-10.304687-10.300781-10.304687zm0 0" fill="#e5e5e5"/><path d="m30.90625 145.257812c5.691406 0 10.304688-4.613281 10.304688-10.304687v-124.652344c-.003907-5.6875-4.613282-10.300781-10.304688-10.300781h-15.453125c-8.53125 0-15.453125 6.917969-15.453125 15.453125v181.140625c0 9.941406 8.089844 18.027344 18.03125 18.027344h5.148438c1.421874 0 2.574218 1.15625 2.574218 2.574218v41.378907h-5.148437c-11.378907 0-20.605469 9.226562-20.605469 20.605469v212.214843c0 11.378907 9.226562 20.605469 20.605469 20.605469 11.378906 0 20.601562-9.226562 20.601562-20.605469v-274.199219c0-9.941406-8.085937-18.027343-18.027343-18.027343h-5.148438c-1.421875 0-2.578125-1.15625-2.578125-2.574219v-51.339844h15.453125zm0 0" fill="#30c456"/><path d="m111.261719 21.632812v103.019532c0 5.6875-4.613281 10.300781-10.300781 10.300781h-30.90625c5.6875 0 10.300781-4.613281 10.300781-10.300781v-103.019532c0-5.6875-4.613281-10.300781-10.300781-10.300781h30.90625c5.6875 0 10.300781 4.613281 10.300781 10.300781zm0 0" fill="#fcbe42"/><g fill="#f79e46"><path d="m111.261719 65.445312v15.394532c-.175781.019531-.339844.027344-.515625.027344h-22.664063c-4.265625 0-7.726562-3.460938-7.726562-7.722657 0-4.265625 3.460937-7.726562 7.726562-7.726562h22.664063c.175781-.003907.339844.007812.515625.027343zm0 0"/><path d="m111.261719 96.351562v15.390626c-.175781.023437-.339844.03125-.515625.03125h-22.664063c-4.265625 0-7.726562-3.460938-7.726562-7.722657 0-4.265625 3.460937-7.726562 7.726562-7.726562h22.664063c.175781-.003907.339844.007812.515625.027343zm0 0"/><path d="m111.261719 34.542969v15.390625c-.175781.019531-.339844.03125-.515625.03125h-22.664063c-4.265625 0-7.726562-3.460938-7.726562-7.726563s3.460937-7.726562 7.726562-7.726562h22.664063c.175781 0 .339844.007812.515625.03125zm0 0"/></g><path d="m384.257812 481.09375v15.453125c0 8.535156-6.917968 15.453125-15.453124 15.453125h-182.339844c-8.535156 0-15.453125-6.917969-15.453125-15.453125v-15.453125l39.703125-363.269531c.855468-7.839844 7.476562-13.773438 15.359375-13.773438h103.121093c7.886719 0 14.503907 5.933594 15.359376 13.773438zm0 0" fill="#b3eaf2"/><path d="m373.359375 380.722656h-191.449219l20.71875-189.554687h150.015625zm0 0" fill="#51c4d6"/><path d="m368.804688 512h-182.339844c-8.535156 0-15.453125-6.917969-15.453125-15.453125v-15.453125h213.246093v15.453125c0 8.535156-6.917968 15.453125-15.453124 15.453125zm0 0" fill="#e5e5e5"/><path d="m309.054688 278.664062c0 17.351563-14.066407 31.421876-31.417969 31.421876-17.355469 0-31.421875-14.070313-31.421875-31.421876 0-17.351562 14.066406-31.421874 31.421875-31.421874 17.351562 0 31.417969 14.070312 31.417969 31.421874zm0 0" fill="#fff"/><path d="m308.539062 348.714844h-61.808593c-4.269531 0-7.726563-3.457032-7.726563-7.726563 0-4.265625 3.460938-7.722656 7.726563-7.722656h61.8125c4.265625 0 7.722656 3.457031 7.722656 7.722656 0 4.269531-3.457031 7.726563-7.726563 7.726563zm0 0" fill="#297789"/><path d="m310.085938 78.292969h-30.90625l-9.125-69.300781c-.566407-4.355469-3.8125-7.785157-7.945313-8.714844.773437-.175782 1.589844-.277344 2.414063-.277344h26.226562c5.171875 0 9.539062 3.832031 10.207031 8.964844zm0 0" fill="#fcbe42"/><path d="m325.539062 88.597656v15.453125h-30.90625v-15.425781c0-.824219-.09375-1.628906-.289062-2.398438-1.070312-4.535156-5.148438-7.902343-10.011719-7.902343h-5.152343v-.03125h36.058593c5.683594 0 10.300781 4.617187 10.300781 10.304687zm0 0" fill="#c4c4c4"/><path d="m384.257812 481.09375h-30.90625l-10.96875-100.339844h.070313v-.03125h30.835937zm0 0" fill="#35d4d8"/><path d="m352.570312 191.171875h-30.90625l-8.011718-73.320313c-.136719-1.214843-.414063-2.386718-.792969-3.5-2.15625-6.039062-7.914063-10.273437-14.570313-10.273437h-3.65625v-.03125h34.5625c7.882813 0 14.507813 5.933594 15.359376 13.773437zm0 0" fill="#35d4d8"/><path d="m373.289062 380.722656h-30.835937l-20.714844-189.519531h-.074219v-.03125h30.90625zm0 0" fill="#0c9dbf"/><path d="m384.257812 481.09375v15.453125c0 8.53125-6.921874 15.453125-15.453124 15.453125h-29.976563c8.097656-.472656 14.527344-7.199219 14.527344-15.421875v-15.484375zm0 0" fill="#c4c4c4"/></svg>