<svg xmlns="http://www.w3.org/2000/svg" xmlns:xlink="http://www.w3.org/1999/xlink" width="451.158" height="136.141" viewBox="0 0 451.158 136.141" id="svg48"><defs id="defs8"><path id="jf7ba" d="M314.56 77.91c0-1.1.9-2 2-2h5.09a2 2 0 0 1 2 2V78a2 2 0 0 1-2 2h-5.09a2 2 0 0 1-2-2z"/><path id="jf7bb" d="M305.78 69.94c0-1.1.9-2 2-2H322a2 2 0 0 1 2 2v.13a2 2 0 0 1-2 2h-14.22a2 2 0 0 1-2-2z"/><path id="jf7bc" d="M273 62c0-1.1.9-2 2-2h47a2 2 0 1 1 0 4h-47a2 2 0 0 1-2-2z"/><path id="jf7bd" d="M162.34 77.91c0-1.1.9-2 2-2h14.22a2 2 0 0 1 2 2V78a2 2 0 0 1-2 2h-14.22a2 2 0 0 1-2-2z"/><path id="jf7be" d="M162.34 69.94c0-1.1.9-2 2-2h32.41a2 2 0 0 1 2 2v.13a2 2 0 0 1-2 2h-32.41a2 2 0 0 1-2-2z"/><path id="jf7bf" d="M162 62c0-1.1.9-2 2-2h88a2 2 0 1 1 0 4h-88a2 2 0 0 1-2-2z"/></defs><path d="M65.785 66.004L84.074 0H69.678l-9.869 49.525L49.125 0h-13.4l-10.23 49.435L15.262 0H.868l18.65 66.004h12.224l10.774-51.518 11.046 51.518z" style="line-height:100px" id="path36" font-weight="700" font-family="Helvetica,Arial,sans-serif" letter-spacing="-3.62" dominant-baseline="text-before-edge" fill="#54555a"/><path d="M108.735 16.297c-14.94 0-24.084 9.87-24.084 25.895 0 16.116 9.145 25.894 24.174 25.894 14.849 0 24.175-9.869 24.175-25.532 0-16.569-8.964-26.257-24.265-26.257zm.09 10.231c6.972 0 11.499 6.247 11.499 15.845 0 9.144-4.708 15.482-11.499 15.482-6.88 0-11.498-6.338-11.498-15.663 0-9.326 4.617-15.664 11.498-15.664z" style="line-height:100px" id="path38" font-weight="700" font-family="Helvetica,Arial,sans-serif" letter-spacing="-3.62" dominant-baseline="text-before-edge" fill="#54555a"/><path d="M138.916 17.112v48.892h12.676V40.019c0-7.425 3.712-11.137 11.136-11.137 1.358 0 2.263.09 3.984.362V16.388c-.725-.09-1.177-.09-1.54-.09-5.794 0-10.864 3.802-13.58 10.411v-9.597z" style="line-height:100px" id="path40" font-weight="700" font-family="Helvetica,Arial,sans-serif" letter-spacing="-3.62" dominant-baseline="text-before-edge" fill="#54555a"/><path d="M182.8 36.125V0h-12.676v66.004H182.8V49.978l5.07-5.523 11.68 21.549h14.848l-17.836-30.422 16.66-18.47h-14.397z" style="line-height:100px" id="path42" font-weight="700" font-family="Helvetica,Arial,sans-serif" letter-spacing="-3.62" dominant-baseline="text-before-edge" fill="#54555a"/><path d="M257.283 32.866c-.18-10.322-8.148-16.569-21.277-16.569-12.404 0-20.1 6.247-20.1 16.297 0 3.26.996 6.067 2.717 7.968 1.72 1.72 3.26 2.535 7.967 4.074l15.12 4.708c3.17.996 4.256 1.992 4.256 3.984 0 2.988-3.531 4.799-9.416 4.799-3.26 0-5.886-.634-7.515-1.72-1.358-.997-1.902-1.992-2.445-4.618h-12.404c.362 10.684 8.24 16.297 23.088 16.297 6.79 0 11.951-1.449 15.573-4.346 3.621-2.897 5.794-7.424 5.794-12.223 0-6.338-3.169-10.412-9.597-12.313l-16.025-4.618c-3.532-1.086-4.437-1.81-4.437-3.802 0-2.717 2.897-4.527 7.334-4.527 6.066 0 9.054 2.173 9.144 6.609z" style="line-height:100px" id="path44" font-weight="700" font-family="Helvetica,Arial,sans-serif" letter-spacing="-3.62" dominant-baseline="text-before-edge" fill="#54555a"/><path d="M276.266 17.112H263.59v68.63h12.676V60.208c3.078 5.433 7.424 7.968 13.58 7.968 11.77 0 20.463-11.046 20.463-25.895 0-6.88-1.992-13.762-5.252-18.289-3.259-4.617-9.325-7.696-15.21-7.696-6.157 0-10.503 2.626-13.581 8.058zm10.683 9.778c6.429 0 10.684 6.248 10.684 15.573 0 8.873-4.436 15.12-10.684 15.12-6.337 0-10.683-6.156-10.683-15.3 0-9.145 4.346-15.393 10.683-15.393z" style="line-height:100px" id="path46" font-weight="700" font-family="Helvetica,Arial,sans-serif" letter-spacing="-3.62" dominant-baseline="text-before-edge" fill="#54555a"/><path d="M357.511 64.464c-2.263-2.082-2.897-3.44-2.897-5.975V31.327c0-9.96-6.79-15.03-20.01-15.03-13.218 0-20.1 5.614-20.914 16.931h12.223c.634-5.07 2.716-6.7 8.963-6.7 4.89 0 7.334 1.63 7.334 4.89 0 1.63-.815 3.078-2.173 3.802-1.72.905-1.72.905-7.967 1.901l-5.07.906c-9.688 1.63-14.396 6.61-14.396 15.392 0 4.164 1.177 7.605 3.44 10.05 2.807 2.897 7.062 4.617 11.408 4.617 5.433 0 10.412-2.354 14.849-6.971 0 2.535.271 3.44 1.448 4.889h13.762zm-15.3-18.108c0 7.334-3.622 11.5-10.05 11.5-4.256 0-6.882-2.264-6.882-5.886 0-3.803 1.992-5.614 7.243-6.7l4.346-.815c3.35-.634 3.893-.815 5.342-1.539z" style="line-height:100px" id="path48" font-weight="700" font-family="Helvetica,Arial,sans-serif" letter-spacing="-3.62" dominant-baseline="text-before-edge" fill="#54555a"/><path d="M404.109 35.401c-.906-11.951-8.873-19.104-21.096-19.104-14.577 0-23.088 9.597-23.088 26.257 0 16.116 8.42 25.532 22.907 25.532 11.86 0 20.1-7.334 21.277-19.013h-12.133c-1.63 6.337-4.165 8.782-9.054 8.782-6.428 0-10.321-5.794-10.321-15.301 0-4.618.905-8.964 2.444-11.86 1.449-2.717 4.256-4.166 7.877-4.166 5.161 0 7.606 2.445 9.054 8.873z" style="line-height:100px" id="path50" font-weight="700" font-family="Helvetica,Arial,sans-serif" letter-spacing="-3.62" dominant-baseline="text-before-edge" fill="#54555a"/><path d="M451.068 45.542c.09-1.087.09-1.54.09-2.173 0-4.89-.724-9.416-1.901-12.857-3.26-8.873-11.136-14.215-21.005-14.215-14.034 0-22.635 10.14-22.635 26.528 0 15.664 8.51 25.261 22.363 25.261 10.955 0 19.828-6.247 22.635-15.844h-12.494c-1.54 3.893-5.07 6.156-9.688 6.156-3.622 0-6.519-1.539-8.33-4.255-1.177-1.81-1.63-3.984-1.81-8.601zm-32.595-8.42c.815-7.425 3.984-11.137 9.598-11.137 3.169 0 6.066 1.54 7.877 4.074 1.177 1.811 1.72 3.712 1.992 7.062z" style="line-height:100px" id="path52" font-weight="700" font-family="Helvetica,Arial,sans-serif" letter-spacing="-3.62" dominant-baseline="text-before-edge" fill="#54555a"/><g id="g20" transform="matrix(2.7716 0 0 2.93399 -449 -98.578)"><use height="100%" width="100%" id="use18" xlink:href="#jf7ba" fill="#b18e70"/></g><g id="g24" transform="matrix(2.7716 0 0 2.90557 -449 -97.964)"><use height="100%" width="100%" id="use22" xlink:href="#jf7bb" fill="#b18e70"/></g><g id="g28" transform="matrix(2.7716 0 0 2.87614 -449 -98.304)"><use height="100%" width="100%" id="use26" xlink:href="#jf7bc" fill="#b18e70"/></g><g id="g32" transform="matrix(2.7716 0 0 2.93399 -449 -98.578)"><use height="100%" width="100%" id="use30" xlink:href="#jf7bd" fill="#b18e70"/></g><g id="g36" transform="matrix(2.7716 0 0 2.90557 -449 -97.964)"><use height="100%" width="100%" id="use34" xlink:href="#jf7be" fill="#b18e70"/></g><g id="g40" transform="matrix(2.7716 0 0 2.87614 -449 -97.808)"><use height="100%" width="100%" id="use38" xlink:href="#jf7bf" fill="#b18e70"/></g></svg>