<?xml version="1.0" encoding="UTF-8" standalone="no"?>
<!-- Generator: Adobe Illustrator 19.0.0, SVG Export Plug-In . SVG Version: 6.00 Build 0)  -->

<svg
   xmlns:dc="http://purl.org/dc/elements/1.1/"
   xmlns:cc="http://creativecommons.org/ns#"
   xmlns:rdf="http://www.w3.org/1999/02/22-rdf-syntax-ns#"
   xmlns:svg="http://www.w3.org/2000/svg"
   xmlns="http://www.w3.org/2000/svg"
   xmlns:sodipodi="http://sodipodi.sourceforge.net/DTD/sodipodi-0.dtd"
   xmlns:inkscape="http://www.inkscape.org/namespaces/inkscape"
   version="1.1"
   id="Capa_1"
   x="0px"
   y="0px"
   viewBox="0 0 32.012002 23.047002"
   xml:space="preserve"
   sodipodi:docname="mail.svg"
   width="32.012001"
   height="23.047001"
   inkscape:version="0.92.3 (2405546, 2018-03-11)"><metadata
   id="metadata43"><rdf:RDF><cc:Work
       rdf:about=""><dc:format>image/svg+xml</dc:format><dc:type
         rdf:resource="http://purl.org/dc/dcmitype/StillImage" /><dc:title></dc:title></cc:Work></rdf:RDF></metadata><defs
   id="defs41" /><sodipodi:namedview
   pagecolor="#ffffff"
   bordercolor="#666666"
   borderopacity="1"
   objecttolerance="10"
   gridtolerance="10"
   guidetolerance="10"
   inkscape:pageopacity="0"
   inkscape:pageshadow="2"
   inkscape:window-width="1920"
   inkscape:window-height="987"
   id="namedview39"
   showgrid="false"
   fit-margin-top="0"
   fit-margin-left="0"
   fit-margin-right="0"
   fit-margin-bottom="0"
   inkscape:zoom="7.6099576"
   inkscape:cx="21.224294"
   inkscape:cy="10.925948"
   inkscape:window-x="0"
   inkscape:window-y="0"
   inkscape:window-maximized="1"
   inkscape:current-layer="Capa_1" />
<g
   id="g6"
   style="fill:#ffffff;stroke:#000000;stroke-opacity:0;fill-opacity:1"
   transform="translate(0.5,-3.982)">
	<path
   d="M 28.512,26.529 H 2.5 C 1.122,26.529 0,25.408 0,24.029 V 6.982 c 0,-1.379 1.122,-2.5 2.5,-2.5 h 26.012 c 1.378,0 2.5,1.121 2.5,2.5 v 17.047 c 0,1.379 -1.122,2.5 -2.5,2.5 z M 2.5,5.482 C 1.673,5.482 1,6.155 1,6.982 v 17.047 c 0,0.827 0.673,1.5 1.5,1.5 h 26.012 c 0.827,0 1.5,-0.673 1.5,-1.5 V 6.982 c 0,-0.827 -0.673,-1.5 -1.5,-1.5 z"
   id="path2"
   style="fill:#ffffff;stroke:#000000;stroke-opacity:0;fill-opacity:1"
   inkscape:connector-curvature="0" />
	<path
   d="m 15.506,18.018 c -0.665,0 -1.33,-0.221 -1.836,-0.662 L 0.891,6.219 C 0.683,6.037 0.661,5.722 0.843,5.514 1.025,5.304 1.341,5.284 1.549,5.465 l 12.778,11.137 c 0.64,0.557 1.72,0.556 2.358,0 L 29.46,5.466 c 0.207,-0.183 0.522,-0.162 0.706,0.049 0.182,0.208 0.16,0.523 -0.048,0.705 L 17.342,17.355 c -0.506,0.442 -1.171,0.663 -1.836,0.663 z"
   id="path4"
   style="fill:#ffffff;stroke:#000000;stroke-opacity:0;fill-opacity:1"
   inkscape:connector-curvature="0" />
</g>
<g
   id="g8"
   transform="translate(0.5,-3.982)">
</g>
<g
   id="g10"
   transform="translate(0.5,-3.982)">
</g>
<g
   id="g12"
   transform="translate(0.5,-3.982)">
</g>
<g
   id="g14"
   transform="translate(0.5,-3.982)">
</g>
<g
   id="g16"
   transform="translate(0.5,-3.982)">
</g>
<g
   id="g18"
   transform="translate(0.5,-3.982)">
</g>
<g
   id="g20"
   transform="translate(0.5,-3.982)">
</g>
<g
   id="g22"
   transform="translate(0.5,-3.982)">
</g>
<g
   id="g24"
   transform="translate(0.5,-3.982)">
</g>
<g
   id="g26"
   transform="translate(0.5,-3.982)">
</g>
<g
   id="g28"
   transform="translate(0.5,-3.982)">
</g>
<g
   id="g30"
   transform="translate(0.5,-3.982)">
</g>
<g
   id="g32"
   transform="translate(0.5,-3.982)">
</g>
<g
   id="g34"
   transform="translate(0.5,-3.982)">
</g>
<g
   id="g36"
   transform="translate(0.5,-3.982)">
</g>
</svg>